<?xml version="1.0" encoding="utf-8"?>
<!-- Generator: Adobe Illustrator 16.0.0, SVG Export Plug-In . SVG Version: 6.00 Build 0)  -->
<!DOCTYPE svg PUBLIC "-//W3C//DTD SVG 1.1//EN" "http://www.w3.org/Graphics/SVG/1.1/DTD/svg11.dtd">
<svg version="1.1" id="Layer_1" xmlns="http://www.w3.org/2000/svg" xmlns:xlink="http://www.w3.org/1999/xlink" x="0px" y="0px"
	 width="3000px" height="3000px" viewBox="0 0 3000 3000" enable-background="new 0 0 3000 3000" xml:space="preserve">
<g>
	<path fill="#FF9700" d="M368.135,1314.088c-3.788-1.31-7.701-2.672-11.777-3.855c-64.749-19.185-100.765,12.228-110.334,44.636
		c-13.117,44.285,9.238,74.625,67.168,119.265c71.014,54.692,100.408,105.486,79.817,175.171
		c-6.081,20.613-16.237,39.109-30.17,54.412c57.399-23.378,104.1-71.739,123.051-135.841
		c30.621-103.394-21.496-211.554-117.758-253.785L368.135,1314.088z"/>
	<path fill="#2B3D52" d="M267.457,1514.931c-69.24-50.263-105.216-104.584-85.477-171.354c2.96-9.903,6.882-19.104,11.707-27.587
		c-53.096,24.697-95.694,71.238-113.642,131.814c-18.733,63.246-6.488,128.229,27.821,178.913
		c23.675,28.96,46.594,50.711,93.115,63.546c63.001,17.4,113.795-6.772,127.928-54.626c13.144-44.291-4.667-77.071-61.452-120.701
		V1514.931z M685.741,1484.23c-18.649-12.462-31.717-23.601-39.191-33.4c-7.484-9.795-11.219-21.282-11.219-34.469
		c0-13.364,3.121-23.915,9.371-31.663c6.248-7.751,15.175-11.627,26.789-11.627c10.557,0,20.454,1.964,29.695,5.881
		c9.238,3.922,18.075,8.379,26.527,13.363l23.755-58.25c-27.276-16.739-55.694-25.114-85.253-25.114
		c-30.972,0-55.651,9.799-74.038,29.391c-18.389,19.599-27.58,46.139-27.58,79.626c0,17.461,2.333,32.776,7,45.96
		c4.661,13.181,11.259,25.071,19.795,35.669c8.533,10.601,21.072,21.689,37.614,33.267c19.003,13.184,32.641,25.165,40.91,35.939
		c8.27,10.781,12.405,22.67,12.405,35.673c0,13.184-3.474,23.604-10.423,31.262c-6.949,7.661-17.286,11.493-31.011,11.493
		c-24.109,0-50.59-9.532-79.45-28.593v71.879c23.581,13.364,52.174,20.04,85.785,20.04c34.312,0,60.573-9.705,78.788-29.124
		c18.209-19.411,27.316-47.376,27.316-83.899c0-22.8-4.979-43.106-14.915-60.925c-9.956-17.808-27.503-35.271-52.665-52.374
		L685.741,1484.23z M797.131,1705.207h70.205v-297.661h-70.205v297.667V1705.207z M832.757,1291.58
		c-12.142,0-21.604,3.431-28.375,10.29c-6.772,6.856-10.157,16.164-10.157,27.921c0,12.118,3.519,21.516,10.558,28.198
		c7.036,6.676,16.365,10.016,27.978,10.016c11.085,0,20.146-3.34,27.186-10.023c7.039-6.675,10.557-16.071,10.557-28.188
		c0-11.754-3.428-21.062-10.29-27.921c-6.863-6.856-16.013-10.291-27.45-10.291L832.757,1291.58z M1210.728,1401.934
		c-33.086,0-57.104,17.196-72.06,51.572h-2.639c-11.969-34.379-35.896-51.568-71.793-51.568c-13.898,0-26.969,3.518-39.19,10.557
		c-12.235,7.036-21.871,18.125-28.908,33.263h-4.486l-8.446-38.208h-55.695v297.666h70.212v-142.963
		c0-35.621,3.431-61.188,10.29-76.683c6.866-15.502,17.861-23.247,32.996-23.247c21.643,0,32.465,21.824,32.465,65.464v177.423
		h70.736v-144.561c0-34.372,3.34-59.356,10.029-74.946c6.682-15.585,17.774-23.38,33.258-23.38
		c21.292,0,31.939,21.824,31.939,65.464v177.423h70.736v-194.258c0-35.625-6.732-62.701-20.192-81.231
		C1256.517,1411.195,1236.771,1401.934,1210.728,1401.934z M1347.443,1705.214h70.212v-297.67h-70.212v297.667V1705.214z
		 M1383.082,1291.576c-12.141,0-21.603,3.432-28.372,10.291c-6.775,6.855-10.163,16.164-10.163,27.92
		c0,12.118,3.518,21.516,10.558,28.198c7.036,6.676,16.363,10.018,27.977,10.018c11.086,0,20.146-3.342,27.186-10.024
		c7.037-6.676,10.558-16.07,10.558-28.188c0-11.754-3.432-21.063-10.29-27.921c-6.867-6.855-16.017-10.29-27.454-10.29V1291.576z
		 M1477.833,1705.21h70.213v-415.772h-70.213V1705.21z M1706.94,1401.396c-34.313,0-66.077,9.355-95.287,28.058l24.289,49.167
		c22.87-13.898,43.106-20.841,60.707-20.841c23.755,0,35.629,13.899,35.629,41.683v21.376l-39.063,1.604
		c-33.785,1.604-59.17,10.023-76.148,25.252c-16.982,15.234-25.473,38.522-25.473,69.874c0,29.218,6.201,52.021,18.609,68.404
		c12.402,16.391,29.425,24.584,51.068,24.584c16.892,0,30.881-3.298,41.963-9.89c11.093-6.582,21.817-18.609,32.208-36.069h1.58
		l13.989,40.613h51.469v-199.867c0-33.134-8.143-58.736-24.414-76.821c-16.27-18.082-39.984-27.129-71.13-27.129L1706.94,1401.396z
		 M1732.278,1590.846c0,19.418-3.829,34.961-11.483,46.628c-7.651,11.67-17.907,17.507-30.748,17.507
		c-17.246,0-25.866-12.294-25.866-36.878c0-16.571,3.735-29.034,11.22-37.41c7.478-8.376,19.221-13.003,35.238-13.898l21.643-1.069
		v25.118L1732.278,1590.846z M1952.67,1413.958c-9.154,8.018-17.598,21.376-25.339,40.079h-2.372l-7.918-46.494h-57.807v297.667
		h70.208v-153.113c0-26.003,4.577-45.822,13.725-59.45c9.148-13.632,22.259-20.44,39.325-20.44c7.918,0,14.342,0.892,19.271,2.673
		l8.184-68.939c-8.274-2.673-16.721-4.009-25.341-4.009c-12.139,0-22.786,4.009-31.934,12.028H1952.67z M2330.375,1535.004
		c-2.818,16.923-7.305,51.746-13.467,104.475c-3.162-35.626-7.477-69.918-12.93-102.871l-41.174-222.059h-74.432l-41.176,222.046
		c-3.875,20.49-8.008,54.605-12.404,102.343c-5.633-47.203-10.125-81.856-13.465-103.94l-34.57-220.448h-70.471l69.943,390.654
		h89.74l36.686-203.609l10.824-80.429l2.111-19.772c2.459,38.122,6.596,71.164,12.402,99.129l37.742,204.682h89.74l69.414-390.654
		h-70.996l-33.523,220.441L2330.375,1535.004z M2560.002,1401.93c-34.311,0-61.061,13.812-80.236,41.419
		c-19.178,27.617-28.768,66.001-28.768,115.165c0,48.459,10.592,85.908,31.807,112.359c21.199,26.461,50.184,39.685,86.969,39.685
		c31.494,0,58.5-6.855,81.029-20.574v-58.518c-23.936,14.433-47.342,21.643-70.213,21.643c-17.947,0-32.027-6.454-42.23-19.371
		c-10.207-12.913-15.568-32.642-16.104-59.187h141.213v-37.947c0-42.574-9.234-75.661-27.711-99.263
		c-18.477-23.607-43.734-35.408-75.756-35.408V1401.93z M2523.318,1522.976c1.053-22.618,4.834-39.323,11.346-50.102
		c6.508-10.775,14.781-16.17,24.811-16.17c10.732,0,19.178,5.613,25.34,16.838c6.156,11.226,9.41,27.698,9.766,49.434h-71.266
		H2523.318z M2905.76,1442.277c-15.303-26.896-36.334-40.344-63.078-40.344c-13.023,0-24.547,3.298-34.58,9.89
		c-10.023,6.589-19.354,18.075-27.973,34.466h-3.699c2.111-26.718,3.254-42.297,3.43-46.758c0.174-4.45,0.27-8.727,0.27-12.829
		v-97.258h-70.213v415.77h51.732l11.873-33.936h4.488c8.973,14.61,18.516,24.811,28.639,30.598
		c10.113,5.786,21.773,8.687,34.967,8.687c27.273,0,48.613-13.451,64.008-40.35c15.396-26.896,23.094-65.017,23.094-114.364
		c0-48.803-7.65-86.659-22.963-113.562L2905.76,1442.277z M2818.926,1649.364c-13.73,0-23.619-7.035-29.701-21.108
		c-6.066-14.066-9.1-38.389-9.1-72.948v-7.21c0.35-31.884,3.473-54.151,9.371-66.801c5.893-12.646,15.525-18.97,28.9-18.97
		c25.691,0,38.535,30.821,38.535,92.453c0,63.059-12.662,94.585-38.008,94.585H2818.926z"/>
</g>
</svg>
